Coordinates
version=1
nRows=7
nColumns=40
inDegrees=yes

Units are S.I. units (second, meters, Newtons, ...)
Angles are in degrees.

endheader
time	pelvis_tilt	pelvis_list	pelvis_rotation	pelvis_tx	pelvis_ty	pelvis_tz	hip_flexion_r	hip_adduction_r	hip_rotation_r	knee_angle_r	knee_angle_r_beta	ankle_angle_r	subtalar_angle_r	mtp_angle_r	hip_flexion_l	hip_adduction_l	hip_rotation_l	knee_angle_l	knee_angle_l_beta	ankle_angle_l	subtalar_angle_l	mtp_angle_l	lumbar_extension	lumbar_bending	lumbar_rotation	arm_flex_r	arm_add_r	arm_rot_r	elbow_flex_r	pro_sup_r	wrist_flex_r	wrist_dev_r	arm_flex_l	arm_add_l	arm_rot_l	elbow_flex_l	pro_sup_l	wrist_flex_l	wrist_dev_l
      1.89000000	     -0.09682381	      1.18082348	      2.84195870	      0.33195196	      0.96364547	     -0.99236362	     -0.53664831	     -1.37075220	    -20.42275463	    -14.25473306	     -0.24879203	      8.54770321	     -1.17681869	     -5.54896481	     21.07175204	      4.84512884	     15.57813638	    -22.92001869	     -0.40002979	      2.84891678	     10.94000142	     11.44299262	     -5.26755517	     -3.15935172	      2.65432987	      6.33787791	    -12.47876527	    -15.06192645	     24.22657843	     89.95437384	      0.00000000	      0.00000000	     -6.74883566	     10.19970144	     14.82951118	     14.92325965	     89.95437384	      0.00000000	      0.00000000
      1.90000000	     -0.26616799	      0.88025858	      2.63902078	      0.34008502	      0.96229938	     -0.99263840	     -0.92540445	     -1.04999490	    -20.49624284	    -14.16490424	     -0.24722422	      8.84474900	     -1.04472508	     -5.72452847	     21.66898525	      5.16561321	     15.61724704	    -20.96706853	     -0.36594438	      2.57533014	     10.27220433	     11.41761344	     -5.07559152	     -2.88814423	      2.89103886	      6.68583936	    -12.57587487	    -14.83414225	     24.64833765	     89.95437384	      0.00000000	      0.00000000	     -7.12285411	     10.17308857	     15.04928052	     14.73483358	     89.95437384	      0.00000000	      0.00000000
      1.91000000	      0.39905755	      1.18771502	      2.25586542	      0.34930332	      0.96241758	     -0.99301676	     -2.45071883	     -1.45067771	    -20.86573919	    -13.82726670	     -0.24133133	      9.09635324	      0.23081478	     -7.26408519	     20.88452978	      5.02775865	     16.70869873	    -18.54684463	     -0.32370350	      1.39682033	      7.94909792	     10.44137043	     -5.82041449	     -3.28156869	      3.05739307	      7.00471285	    -12.72920912	    -13.62706965	     25.31985529	     89.95437384	      0.00000000	      0.00000000	     -7.41501428	     10.07982307	     16.55806457	     14.40943837	     89.95437384	      0.00000000	      0.00000000
      1.92000000	      0.56584281	      1.33486548	      1.84084667	      0.35789869	      0.96157842	     -0.99338527	     -3.22388420	     -1.67984812	    -20.85996898	    -13.77090005	     -0.24034755	      9.44253213	      0.47314046	     -8.04083130	     20.84261698	      4.97965357	     17.38826601	    -16.55758614	     -0.28898439	      0.49413385	      6.18831124	      9.93291595	     -6.00861929	     -3.51082326	      3.36756287	      7.31258654	    -12.80936659	    -12.96593085	     25.81418280	     89.95437384	      0.00000000	      0.00000000	     -7.72508845	     10.05680517	     17.07995146	     14.15138362	     89.95437384	      0.00000000	      0.00000000
      1.93000000	      0.71015337	      1.41785078	      1.48737311	      0.36665912	      0.96057647	     -0.99381841	     -3.98811918	     -1.84855075	    -20.89272941	    -13.72864642	     -0.23961008	      9.76749024	      0.88015693	     -8.72114275	     20.89088111	      5.01416068	     17.96761510	    -14.88523823	     -0.25979642	     -0.35724686	      4.13432031	      9.48475995	     -6.15102987	     -3.68563012	      3.60589120	      7.61701001	    -12.81859509	    -12.55464063	     26.25154330	     89.95437384	      0.00000000	      0.00000000	     -8.05180711	     10.05977290	     17.49756769	     13.88744675	     89.95437384	      0.00000000	      0.00000000
      1.94000000	      0.85985298	      1.54569734	      1.05870195	      0.37546152	      0.95951068	     -0.99431838	     -4.71442167	     -2.11630554	    -20.86202562	    -13.76608021	     -0.24026342	     10.14669346	      1.34181568	     -9.40500225	     20.95255779	      5.02799494	     18.57027049	    -13.47321727	     -0.23515200	     -1.12027498	      1.98760158	      9.00918849	     -6.28884144	     -3.89940937	      3.95032085	      7.90869206	    -12.80381126	    -12.43590825	     26.71588396	     89.95437384	      0.00000000	      0.00000000	     -8.35889898	     10.04199679	     17.86413327	     13.68251173	     89.95437384	      0.00000000	      0.00000000
      1.95000000	      0.98150086	      1.64085780	      0.59043393	      0.38460221	      0.95835015	     -0.99465165	     -5.42928080	     -2.36751763	    -20.87690208	    -13.78691738	     -0.24062710	     10.43720388	      1.92908704	    -10.32129128	     21.04225035	      5.15326699	     19.21864979	    -12.33667178	     -0.21531554	     -1.74743280	     -0.32221417	      8.30977672	     -6.34564530	     -4.11692579	      4.28220530	      8.14938239	    -12.79252584	    -11.95049518	     27.08967880	     89.95437384	      0.00000000	      0.00000000	     -8.67369911	     10.02947525	     18.38878885	     13.40569161	     89.95437384	      0.00000000	      0.00000000
